<svg xmlns="http://www.w3.org/2000/svg" width="1200" height="700" viewBox="0 0 1200 700" fill="none">
  <defs>
    <linearGradient id="bg" x1="0" y1="0" x2="1" y2="1">
      <stop offset="0" stop-color="#F6FBFF"/>
      <stop offset="1" stop-color="#EAF4FF"/>
    </linearGradient>
    <linearGradient id="glass" x1="0" y1="0" x2="0" y2="1">
      <stop offset="0" stop-color="#FFFFFF" stop-opacity="0.9"/>
      <stop offset="1" stop-color="#FFFFFF" stop-opacity="0.55"/>
    </linearGradient>
    <filter id="shadow" x="-20%" y="-20%" width="140%" height="140%">
      <feDropShadow dx="0" dy="18" stdDeviation="22" flood-color="#0F172A" flood-opacity="0.10"/>
    </filter>
  </defs>

  <rect width="1200" height="700" rx="48" fill="url(#bg)"/>

  <circle cx="880" cy="180" r="240" fill="#DFF7EA"/>
  <circle cx="980" cy="240" r="170" fill="#E7F3FF"/>
  <circle cx="820" cy="310" r="120" fill="#F1F5F9"/>

  <g filter="url(#shadow)">
    <rect x="670" y="90" width="460" height="520" rx="36" fill="url(#glass)" stroke="#E2E8F0"/>
  </g>

  <g>
    <path d="M840 205c38-22 84-24 123-5 58 28 81 95 52 152-20 38-59 61-101 64-42 3-84-15-110-49-42-55-24-133 36-162Z" fill="#FFFFFF"/>
    <path d="M835 220c34-22 77-24 114-6 52 26 72 87 46 140-18 36-54 57-93 60-39 3-77-14-101-45-38-49-22-119 34-149Z" fill="#F8FAFC"/>

    <path d="M892 230c-18 0-34 15-34 33v66c0 20 16 36 36 36h52c20 0 36-16 36-36v-20c0-43-36-79-80-79h-10Z" fill="#E2E8F0"/>
    <path d="M892 238c-14 0-26 12-26 26v62c0 16 13 28 28 28h48c16 0 28-12 28-28v-18c0-39-32-70-71-70h-7Z" fill="#FFFFFF"/>

    <path d="M960 256c-20 10-34 33-34 59v16c0 10 8 18 18 18h10c10 0 18-8 18-18v-72c0-4-4-6-8-3Z" fill="#16A34A" opacity="0.20"/>
    <path d="M962 258c-17 10-28 29-28 51v20c0 7 6 13 13 13h10c7 0 13-6 13-13v-68c0-3-4-5-8-3Z" fill="#16A34A" opacity="0.35"/>

    <circle cx="930" cy="290" r="34" fill="#E8FFF1" stroke="#BBF7D0"/>
    <path d="M930 274v32M914 290h32" stroke="#16A34A" stroke-width="8" stroke-linecap="round"/>
  </g>

  <g filter="url(#shadow)">
    <rect x="740" y="420" width="330" height="150" rx="24" fill="#FFFFFF" stroke="#E2E8F0"/>
  </g>
  <g font-family="ui-sans-serif, system-ui, -apple-system, Segoe UI, Roboto, Helvetica, Arial" font-weight="800">
    <text x="770" y="466" font-size="22" fill="#0F172A">3500+</text>
    <text x="770" y="492" font-size="14" fill="#64748B" font-weight="700">Tests & Profiles</text>
    <text x="930" y="466" font-size="22" fill="#0F172A">10L+</text>
    <text x="930" y="492" font-size="14" fill="#64748B" font-weight="700">Happy Customers</text>
    <text x="770" y="530" font-size="22" fill="#0F172A">4.8/5</text>
    <text x="770" y="556" font-size="14" fill="#64748B" font-weight="700">Customer Rating</text>
    <text x="930" y="530" font-size="22" fill="#0F172A">24x7</text>
    <text x="930" y="556" font-size="14" fill="#64748B" font-weight="700">Customer Support</text>
  </g>
</svg>
